<?xml version="1.0" encoding="UTF-8"?>
<svg xmlns="http://www.w3.org/2000/svg" width="1322" height="307" viewBox="0 0 1322 307">
  <rect width="1322" height="307" fill="black"/>
  <path d="M 145 196 L 124 196 L 121 199 L 120 206 L 119 207 L 118 213 L 117 214 L 117 218 L 114 225 L 114 230 L 112 233 L 111 241 L 109 243 L 108 252 L 106 254 L 106 259 L 105 260 L 105 263 L 103 265 L 103 271 L 102 272 L 102 274 L 100 276 L 100 282 L 99 283 L 99 285 L 97 287 L 97 293 L 96 294 L 96 296 L 94 298 L 94 304 L 93 306 L 118 306 L 119 304 L 119 300 L 122 293 L 122 288 L 125 282 L 125 277 L 127 274 L 128 266 L 130 264 L 131 255 L 133 253 L 133 247 L 134 246 L 134 244 L 136 242 L 136 236 L 137 235 L 137 233 L 139 231 L 139 225 L 140 224 L 140 222 L 142 220 L 142 214 L 143 213 L 143 211 L 145 209 L 145 203 L 147 199 Z M 728 169 L 709 169 L 709 171 L 708 172 L 708 175 L 706 177 L 706 185 L 705 186 L 705 189 L 704 190 L 704 193 L 703 194 L 703 199 L 702 200 L 702 204 L 701 205 L 701 208 L 700 209 L 700 214 L 699 215 L 699 219 L 698 220 L 698 224 L 697 225 L 697 228 L 696 229 L 696 234 L 697 235 L 715 235 L 715 232 L 716 231 L 716 228 L 718 225 L 718 217 L 719 216 L 719 213 L 721 211 L 721 203 L 722 202 L 722 199 L 724 197 L 724 189 L 725 188 L 725 185 L 726 184 L 726 181 L 727 180 L 727 175 L 728 174 Z M 182 154 L 181 155 L 181 159 L 180 160 L 180 164 L 178 166 L 178 170 L 177 171 L 177 174 L 176 175 L 177 175 L 178 176 L 202 176 L 202 175 L 203 174 L 203 172 L 205 170 L 205 164 L 206 163 L 206 161 L 208 159 L 208 153 L 184 153 L 183 154 Z M 133 154 L 133 159 L 132 160 L 132 162 L 131 163 L 131 164 L 130 165 L 130 171 L 129 172 L 129 173 L 128 174 L 128 175 L 129 175 L 130 176 L 154 176 L 155 175 L 155 171 L 156 170 L 156 169 L 157 168 L 157 165 L 158 164 L 158 160 L 159 159 L 159 158 L 160 157 L 160 155 L 161 154 L 160 153 L 135 153 L 134 154 Z M 88 153 L 87 154 L 87 155 L 86 156 L 86 158 L 85 159 L 85 162 L 84 163 L 84 167 L 83 168 L 83 169 L 82 170 L 82 173 L 81 174 L 81 175 L 82 176 L 106 176 L 107 175 L 108 175 L 108 174 L 109 173 L 109 168 L 110 167 L 110 165 L 111 164 L 111 163 L 112 162 L 112 157 L 113 156 L 113 155 L 114 154 L 113 154 L 112 153 Z M 1142 133 L 1137 151 L 1134 171 L 1132 174 L 1131 185 L 1129 188 L 1129 195 L 1126 201 L 1126 209 L 1123 215 L 1120 235 L 1138 235 L 1145 199 L 1149 194 L 1174 195 L 1189 221 L 1195 235 L 1219 235 L 1204 209 L 1195 189 L 1193 188 L 1193 183 L 1238 136 L 1239 133 L 1219 133 L 1178 175 L 1155 175 L 1151 172 L 1156 154 L 1156 146 L 1159 141 L 1159 133 Z M 1030 139 L 1021 148 L 1015 161 L 1015 169 L 1012 175 L 1012 183 L 1009 191 L 1005 214 L 1006 222 L 1009 228 L 1013 232 L 1020 235 L 1101 235 L 1104 217 L 1102 216 L 1027 216 L 1024 212 L 1024 208 L 1027 202 L 1027 195 L 1030 188 L 1030 180 L 1033 174 L 1034 162 L 1038 154 L 1117 153 L 1120 146 L 1121 134 L 1048 133 L 1035 136 Z M 916 139 L 907 148 L 907 153 L 972 153 L 976 156 L 975 168 L 971 172 L 904 172 L 898 175 L 889 185 L 889 191 L 886 197 L 886 206 L 883 214 L 886 226 L 892 232 L 899 235 L 979 235 L 980 227 L 982 225 L 982 218 L 985 211 L 985 204 L 988 198 L 988 190 L 991 184 L 991 176 L 994 170 L 994 162 L 997 154 L 991 139 L 976 133 L 934 133 L 921 136 L 920 138 Z M 903 206 L 904 205 L 904 201 L 905 200 L 905 199 L 907 197 L 907 196 L 909 194 L 910 194 L 912 192 L 913 192 L 914 191 L 966 191 L 969 194 L 969 200 L 968 201 L 968 203 L 967 204 L 967 207 L 966 208 L 966 212 L 965 213 L 964 213 L 962 216 L 906 216 L 904 214 L 904 213 L 903 212 Z M 883 133 L 826 133 L 823 135 L 823 140 L 820 147 L 820 155 L 819 156 L 819 159 L 817 161 L 817 169 L 816 170 L 816 173 L 814 175 L 814 183 L 811 189 L 811 197 L 808 203 L 808 211 L 805 218 L 805 225 L 804 226 L 803 235 L 821 235 L 821 233 L 823 230 L 823 222 L 826 216 L 826 208 L 829 201 L 829 194 L 831 190 L 831 185 L 833 179 L 833 174 L 835 170 L 836 160 L 838 156 L 840 154 L 843 153 L 880 153 L 881 144 L 883 142 Z M 718 133 L 715 136 L 715 143 L 714 144 L 714 147 L 713 148 L 713 149 L 712 150 L 712 157 L 730 157 L 731 156 L 731 155 L 732 154 L 732 151 L 733 150 L 733 147 L 734 146 L 734 140 L 735 139 L 735 138 L 736 137 L 736 133 Z M 691 133 L 688 134 L 610 134 L 607 137 L 607 145 L 604 151 L 607 153 L 634 153 L 637 156 L 634 173 L 632 178 L 630 194 L 627 203 L 627 209 L 624 217 L 624 224 L 622 227 L 622 231 L 621 232 L 622 234 L 638 234 L 640 233 L 641 222 L 643 220 L 643 213 L 646 206 L 646 198 L 647 194 L 649 192 L 649 184 L 650 180 L 652 178 L 652 170 L 653 166 L 655 164 L 655 157 L 656 155 L 659 153 L 688 153 L 691 149 L 691 142 L 693 138 L 693 135 Z M 584 139 L 580 136 L 570 133 L 495 134 L 489 157 L 489 164 L 487 167 L 486 177 L 484 180 L 483 191 L 481 194 L 481 201 L 478 207 L 478 215 L 475 221 L 475 229 L 472 235 L 472 243 L 469 249 L 469 257 L 466 265 L 464 280 L 482 280 L 484 276 L 484 268 L 487 262 L 487 254 L 490 246 L 490 240 L 493 236 L 553 235 L 566 229 L 574 221 L 574 219 L 577 216 L 578 209 L 580 207 L 580 199 L 583 193 L 583 185 L 586 179 L 586 171 L 589 164 L 589 146 Z M 511 154 L 513 153 L 566 153 L 571 157 L 570 164 L 568 167 L 568 174 L 566 178 L 566 183 L 565 184 L 564 194 L 563 195 L 562 203 L 561 204 L 561 209 L 556 216 L 500 216 L 497 213 L 497 205 L 499 202 L 499 198 L 500 197 L 500 191 L 502 188 L 502 183 L 503 182 L 503 177 L 505 174 L 505 168 L 506 167 L 506 163 L 508 161 L 508 158 Z M 848 90 L 727 90 L 724 92 L 721 109 L 771 109 L 774 111 L 765 161 L 762 169 L 762 176 L 760 179 L 756 204 L 754 206 L 753 218 L 751 220 L 751 228 L 748 235 L 767 235 L 793 111 L 795 109 L 845 109 L 849 92 Z M 355 94 L 343 105 L 340 112 L 340 117 L 337 124 L 337 132 L 334 138 L 334 146 L 331 152 L 331 160 L 321 203 L 320 220 L 322 226 L 327 232 L 334 235 L 426 235 L 436 231 L 442 227 L 448 220 L 454 204 L 458 176 L 463 158 L 464 147 L 466 144 L 467 133 L 469 130 L 470 119 L 472 117 L 472 103 L 469 97 L 463 92 L 457 90 L 365 90 Z M 367 113 L 370 112 L 442 112 L 445 113 L 448 117 L 447 126 L 445 128 L 445 136 L 444 140 L 442 142 L 442 150 L 441 154 L 439 156 L 439 164 L 436 171 L 436 179 L 433 185 L 433 193 L 430 200 L 430 206 L 426 211 L 422 212 L 349 212 L 346 211 L 343 208 L 344 207 L 344 203 L 346 200 L 346 192 L 349 186 L 349 178 L 352 171 L 352 164 L 356 149 L 356 143 L 358 139 L 359 129 L 361 125 L 362 117 Z M 205 62 L 202 73 L 206 74 L 216 82 L 231 98 L 241 113 L 249 131 L 254 157 L 252 190 L 241 219 L 232 233 L 216 250 L 200 262 L 184 270 L 159 277 L 147 277 L 145 286 L 148 287 L 165 286 L 171 283 L 177 283 L 199 274 L 217 262 L 241 237 L 250 222 L 259 198 L 263 178 L 263 156 L 257 127 L 250 110 L 238 91 L 220 73 Z M 140 46 L 127 46 L 106 51 L 89 58 L 74 67 L 49 91 L 37 109 L 28 130 L 24 155 L 25 190 L 28 196 L 28 202 L 37 223 L 49 241 L 64 257 L 79 268 L 82 267 L 83 260 L 69 249 L 52 229 L 37 198 L 33 172 L 34 146 L 37 140 L 37 134 L 50 106 L 58 95 L 78 76 L 92 67 L 110 59 L 137 55 Z M 194 18 L 172 18 L 169 20 L 169 26 L 168 27 L 168 29 L 166 31 L 166 37 L 165 38 L 165 40 L 163 42 L 163 48 L 160 54 L 160 60 L 157 67 L 157 71 L 155 75 L 153 86 L 151 90 L 150 99 L 148 102 L 147 110 L 145 112 L 144 121 L 142 123 L 141 133 L 165 133 L 166 132 L 166 127 L 167 126 L 167 124 L 169 122 L 169 116 L 170 115 L 170 113 L 172 111 L 172 105 L 173 104 L 173 102 L 175 100 L 175 94 L 178 88 L 178 83 L 181 76 L 181 72 L 183 68 L 183 65 L 185 60 L 185 56 L 188 48 L 188 44 L 190 41 L 191 32 L 193 30 L 194 21 L 196 19 Z" fill="white" fill-rule="evenodd"/>
</svg>
