<?xml version="1.0" encoding="utf-8"?>
<svg version="1.0" xmlns="http://www.w3.org/2000/svg" width="253.000000pt" height="253.000000pt" viewBox="0 0 253.000000 253.000000" preserveAspectRatio="xMidYMid meet">
  <g transform="translate(0.000000,253.000000) scale(0.050000,-0.050000)" fill="#848f64" stroke="none">
    <path d="M0 2530 l0 -2530 2530 0 2530 0 0 2530 0 2530 -2530 0 -2530 0 0 -2530z m2435 1800 l6 -630 -60 0 c-105 0 -370 -97 -486 -178 l-112 -79 -211 214 -212 213 0 285 0 285 -370 0 -370 0 0 -370 0 -370 285 0 285 0 213 -212 214 -211 -79 -112 c-256 -366 -251 -942 12 -1307 l67 -94 -213 -212 -214 -212 -285 0 -285 0 0 -370 0 -370 370 0 370 0 0 285 0 285 212 213 211 214 112 -79 c116 -81 381 -178 486 -178 l60 0 -6 -630 -5 -631 -1165 0 -1165 0 0 2441 c0 1342 0 2442 0 2445 0 3 524 3 1165 0 l1165 -4 5 -631z m2545 -1810 l0 -2441 -1165 0 -1165 0 -5 631 -6 630 60 0 c105 0 370 97 486 178 l112 79 211 -214 212 -213 0 -285 0 -285 370 0 370 0 0 370 0 370 -285 0 -285 0 -215 214 c-214 211 -215 213 -178 254 287 318 309 980 45 1357 l-79 112 214 211 213 212 285 0 285 0 0 370 0 370 -370 0 -370 0 0 -285 0 -285 -211 -213 -211 -212 -124 83 c-134 89 -287 148 -439 166 l-95 12 0 623 c0 344 4 628 8 633 5 4 531 6 1170 3 l1162 -4 0 -2441z m-3840 1540 l0 -160 -160 0 -160 0 0 160 0 160 160 0 160 0 0 -160z m3100 0 l0 -160 -160 0 -160 0 0 160 0 160 160 0 160 0 0 -160z m-1496 -582 c273 -57 549 -271 670 -520 482 -993 -784 -1906 -1563 -1127 -684 684 -55 1844 893 1647z m-1604 -2518 l0 -160 -160 0 -160 0 0 160 0 160 160 0 160 0 0 -160z m3100 0 l0 -160 -160 0 -160 0 0 160 0 160 160 0 160 0 0 -160z"/>
    <path d="M2260 2520 l0 -280 280 0 280 0 0 280 0 280 -280 0 -280 0 0 -280z"/>
  </g>
</svg>